<svg height="477pt" viewBox="-32 0 477 477.597" width="477pt" xmlns="http://www.w3.org/2000/svg" xmlns:xlink="http://www.w3.org/1999/xlink"><linearGradient id="a"><stop offset=".322" stop-color="#a163f5"/><stop offset=".466" stop-color="#b074ee"/><stop offset=".752" stop-color="#d8a1dd"/><stop offset=".898" stop-color="#efbad3"/></linearGradient><linearGradient id="b" gradientUnits="userSpaceOnUse" x1="206.2985" x2="206.2985" xlink:href="#a" y1="465.611001" y2="2.776001"/><linearGradient id="c" gradientUnits="userSpaceOnUse" x1="184.4345" x2="184.4345" xlink:href="#a" y1="465.611001" y2="2.776001"/><linearGradient id="d" gradientUnits="userSpaceOnUse" x1="180.8555" x2="180.8555" xlink:href="#a" y1="465.611001" y2="2.776001"/><linearGradient id="e" gradientUnits="userSpaceOnUse" x1="130.6645" x2="130.6645" xlink:href="#a" y1="465.611001" y2="2.776001"/><path d="m408.785156 292.804688-46.488281-65.597657v-132.421875c0-1.59375-.632813-3.121094-1.761719-4.246094l-88.78125-88.601562c-.980468-.976562-2.265625-1.585938-3.640625-1.722656l-1.855469-.183594c-.199218-.0195312-.398437-.03125-.597656-.03125h-123.332031c-22.710937.0273438-41.117187 18.429688-41.144531 41.144531v3.992188h-9.742188c-22.710937.023437-41.117187 18.429687-41.144531 41.144531v129.75l-46.792969 76.917969c-1.96875 1.039062-3.203125 3.082031-3.207031 5.308593v146.667969c.015625 18.035157 14.632813 32.652344 32.667969 32.671875h346.667968c18.035157-.019531 32.648438-14.636718 32.664063-32.671875v-146.667969c0-2.347656-1.375-4.480468-3.511719-5.453124zm-15.09375-.546876h-31.394531v-44.300781zm-120.363281-271.789062 68.648437 68.5h-39.5c-16.085937-.015625-29.128906-13.050781-29.148437-29.140625zm-160.144531 20.675781c.019531-16.085937 13.054687-29.125 29.144531-29.140625h119v47.824219c.023437 22.714844 18.429687 41.117187 41.144531 41.144531h47.824219v191.285156h-38.882813v-152.335937c0-1.59375-.636718-3.121094-1.761718-4.246094l-88.785156-88.601562c-.980469-.976563-2.265626-1.585938-3.640626-1.722657l-1.855468-.183593c-.199219-.019531-.398438-.03125-.597656-.03125h-101.589844zm109.261718 24.457031 68.644532 68.503907h-39.503906c-16.089844-.015625-29.125-13.054688-29.140626-29.140625zm-131-8.464843h119v47.828125c.023438 22.710937 18.429688 41.117187 41.140626 41.140625h47.828124v146.152343h-3.117187c-16.191406.019532-29.316406 13.144532-29.332031 29.339844-.011719 9.566406-7.765625 17.320313-17.332032 17.332032h-86.667968c-9.566406-.011719-17.324219-7.765626-17.332032-17.332032-.015624-16.195312-13.140624-29.320312-29.335937-29.339844h-54v-72.859374l.128906-.207032-.128906-.078125v-132.832031c.019531-16.089844 13.058594-29.125 29.144531-29.144531zm-41.148437 235.121093h-32.324219l32.324219-53.140624zm350 152.667969c-.007813 11.410157-9.253906 20.660157-20.664063 20.671875h-346.667968c-11.410156-.011718-20.65625-9.261718-20.667969-20.671875v-140.667969h104c9.570313.011719 17.328125 7.769532 17.335937 17.339844.015626 16.191406 13.140626 29.3125 29.332032 29.332032h86.667968c16.191407-.019532 29.3125-13.140626 29.332032-29.332032.007812-9.570312 7.761718-17.328125 17.332031-17.339844h104zm0 0" fill="url(#b)"/><path d="m272.964844 372.257812h-133.332032c-3.316406 0-6 2.6875-6 6v26.667969c0 3.3125 2.683594 6 6 6h133.332032c3.3125 0 6-2.6875 6-6v-26.667969c0-3.3125-2.6875-6-6-6zm-6 26.667969h-121.332032v-14.667969h121.332032zm0 0" fill="url(#b)"/><path d="m193.21875 231.695312h-17.566406c-3.316406 0-6 2.6875-6 6 0 3.316407 2.683594 6 6 6h17.566406c3.3125 0 6-2.683593 6-6 0-3.3125-2.6875-6-6-6zm0 0" fill="url(#c)"/><path d="m107.933594 199.765625h145.84375c3.3125 0 6-2.683594 6-6 0-3.3125-2.6875-6-6-6h-145.84375c-3.3125 0-6 2.6875-6 6 0 3.316406 2.6875 6 6 6zm0 0" fill="url(#d)"/><path d="m107.933594 243.695312h45.464844c3.3125 0 6-2.683593 6-6 0-3.3125-2.6875-6-6-6h-45.460938c-3.3125 0-6 2.6875-6 6 0 3.316407 2.6875 6 6 6zm0 0" fill="url(#e)"/></svg>