<svg id="Layer_1" height="512" viewBox="0 0 512 512" width="512" xmlns="http://www.w3.org/2000/svg" xmlns:xlink="http://www.w3.org/1999/xlink" data-name="Layer 1"><linearGradient id="linear-gradient" gradientUnits="userSpaceOnUse" x1="256" x2="256" y1="455.166" y2="61.566"><stop offset=".322" stop-color="#a163f5"/><stop offset=".466" stop-color="#b074ee"/><stop offset=".752" stop-color="#d8a1dd"/><stop offset=".898" stop-color="#efbad3"/></linearGradient><linearGradient id="linear-gradient-2" x1="219.377" x2="219.377" xlink:href="#linear-gradient" y1="455.166" y2="61.566"/><path d="m450.951 378.943a5.58 5.58 0 0 0 -.646-.277l-26.427-9.537v-9.285a5.841 5.841 0 0 0 -.051-.749c-.007-.057-.017-.113-.027-.169q-.045-.288-.117-.569c-.016-.059-.029-.119-.046-.178a6.086 6.086 0 0 0 -.236-.668c-.018-.041-.039-.08-.057-.12a5.856 5.856 0 0 0 -.271-.529c-.033-.059-.068-.116-.1-.173a5.875 5.875 0 0 0 -.365-.526c-.016-.02-.03-.042-.046-.063a5.956 5.956 0 0 0 -.5-.545c-.034-.034-.071-.065-.106-.1a5.777 5.777 0 0 0 -.471-.394l-.133-.1a6.072 6.072 0 0 0 -1.187-.659l-14.747-6.073v-.179a72.489 72.489 0 0 0 43.682-62.082 22.929 22.929 0 0 0 13.4-26.589 18.537 18.537 0 0 0 -10.835-12.785l1.235-17.874a76.359 76.359 0 0 0 -52.437-77.76v-43.974a6 6 0 0 0 -3.355-5.386l-175.066-85.985a6 6 0 0 0 -5.284 0l-175.108 85.758a6 6 0 0 0 -3.361 5.388v174.375c0 44.291 27.609 96.515 64.222 121.477l113.489 77.398a6 6 0 0 0 6.776-.01l57.609-39.539v50.538a6 6 0 0 0 6 6h181.33a6 6 0 0 0 6-6v-77.973q0-.249-.021-.5a41.633 41.633 0 0 0 -22.743-33.584zm-59.442 64.635-13.9 18.532-13.9-18.534 12.17-48.513 1.167-.777 2.474 1.649zm-87.722-64.912a5.565 5.565 0 0 0 -.645.277 40.74 40.74 0 0 0 -5.583 3.4l-.033-.05-78.063 50.541-94.087-64.168c-25.4-17.32-46.07-56.4-46.07-87.126v-153.276l140.067-68.6 140.075 68.8v20.809a76.256 76.256 0 0 0 -58.592 79.448l1.231 17.853a18.521 18.521 0 0 0 -10.879 12.8 22.926 22.926 0 0 0 13.44 26.607 72.5 72.5 0 0 0 43.989 62.2l-14.708 6.057a6 6 0 0 0 -3.713 5.581v.034 9.276zm89.629-25.64v15.924l-16.37 10.914-16.312-10.875v-16.889a71.972 71.972 0 0 0 32.632-.076 5.919 5.919 0 0 0 .05 1.002zm-51.2 18.038 8.414 5.61a6.018 6.018 0 0 0 1.67 1.113l13.688 9.125a5.745 5.745 0 0 0 -.382.58l-7.58 5.052-15.81-21.08zm47.884 17.5a5.938 5.938 0 0 0 -1.264-2.138l13.537-9.025a5.847 5.847 0 0 0 .691-.461l8.816-5.877v.4l-15.811 21.08zm52.09-113a6 6 0 0 0 -4.954 5.908v.107a60.359 60.359 0 1 1 -120.718 0v-.1a6 6 0 0 0 -4.965-5.91 10.911 10.911 0 0 1 -8.688-13.333 6.449 6.449 0 0 1 3.026-4.13 11.321 11.321 0 0 0 2.69 1.946c.165.085.335.162.507.232 10.192 4.086 12.639 4.233 15.259 2.61a6.156 6.156 0 0 0 2.883-4.721l2.068-25.863 7.547.812a70.24 70.24 0 0 0 62.685-26.439l3.312.147a21.7 21.7 0 0 1 18.724 12.687l10.249 42.248a6 6 0 0 0 9.925 2.972l5.59-5.217a12.855 12.855 0 0 0 1.02-1.083 6.5 6.5 0 0 1 2.5 3.8 10.914 10.914 0 0 1 -8.662 13.327zm-18.375-95.9a63.57 63.57 0 0 1 17.119 48.228l-1.1 16-6.734-27.718a6.127 6.127 0 0 0 -.311-.934 33.754 33.754 0 0 0 -29.423-20.4l-6.48-.286a6.026 6.026 0 0 0 -5.155 2.517 58.2 58.2 0 0 1 -53.609 24.118l-10.895-1.171a8.72 8.72 0 0 0 -9.626 7.977l-1.763 22.038c-.506-.191-1.019-.387-1.528-.586l-1.486-21.551a64.2 64.2 0 0 1 110.986-48.228zm-204.449 288.121-110.095-75.085c-33.625-22.926-58.982-70.887-58.982-111.563v-170.637l169.1-82.82 169.072 83.04v37.416a77.958 77.958 0 0 0 -11.586-.866c-1.824 0-3.632.086-5.431.21v-22.754a6 6 0 0 0 -3.354-5.386l-146.068-71.74a6.009 6.009 0 0 0 -5.284 0l-146.071 71.533a6 6 0 0 0 -3.361 5.389v157.019c0 34.219 23.017 77.751 51.309 97.041l97.385 66.418a6 6 0 0 0 6.642.079l58.581-37.929a40.743 40.743 0 0 0 -.818 5.382c-.013.165-.02.332-.02.5v12.879zm242.345 17.215h-169.33v-71.711a29.572 29.572 0 0 1 15.827-23.461l25.8-9.309 17.825 23.766a6 6 0 0 0 8.128 1.392l1.065-.71-9.649 38.461a6 6 0 0 0 1.02 5.06l20.416 27.221a6 6 0 0 0 9.6 0l20.416-27.221a6 6 0 0 0 1.019-5.064l-9.464-37.608a5.964 5.964 0 0 0 7.882-1.531l17.825-23.767 25.8 9.31a29.568 29.568 0 0 1 15.826 23.461z" fill="url(#linear-gradient)"/><path d="m275.768 215.929-74.7 68.422-37.722-40.9a6 6 0 1 0 -8.823 8.135l41.777 45.3a6 6 0 0 0 8.464.358l79.11-72.461a6 6 0 0 0 -8.105-8.85z" fill="url(#linear-gradient-2)"/></svg>