<?xml version="1.0" encoding="utf-8"?>
<!-- Generator: Adobe Illustrator 23.0.1, SVG Export Plug-In . SVG Version: 6.00 Build 0)  -->
<svg version="1.1" id="Capa_1" xmlns="http://www.w3.org/2000/svg" xmlns:xlink="http://www.w3.org/1999/xlink" x="0px" y="0px"
	 viewBox="0 0 48 48" style="enable-background:new 0 0 48 48;" xml:space="preserve">
<style type="text/css">
	.st0{fill:#6470FB;}
</style>
<g>
	<g>
		<g>
			<path class="st0" d="M24.1,20.2c-2,0-3.7,1.7-3.7,3.7s1.7,3.7,3.7,3.7s3.7-1.7,3.7-3.7S26.1,20.2,24.1,20.2z"/>
		</g>
	</g>
	<g>
		<g>
			<path class="st0" d="M23.9,3C12.4,3,3,12.4,3,23.9S12.4,45,23.9,45S45,35.5,45,23.9S35.5,3,23.9,3z M32.7,30.1
				c-1.7,0-3.1-0.8-4-2.1c-1.1,1.3-2.8,2.1-4.6,2.1c-3.4,0-6.2-2.8-6.2-6.2s2.8-6.2,6.2-6.2c1.4,0,2.7,0.5,3.7,1.3v0
				c0-0.7,0.6-1.2,1.2-1.2c0.7,0,1.2,0.6,1.2,1.2c0,2.7,0,3.4,0,6.2c0,1.4,1.1,2.5,2.5,2.5s2.5-1.1,2.5-2.5
				c0-8.2-5.4-12.3-11.1-12.3c-6.1,0-11.1,5-11.1,11.1S18,35,24.1,35c2.5,0,4.8-0.8,6.7-2.3c1.3-1,2.8,1,1.5,2
				c-2.4,1.8-5.2,2.8-8.2,2.8c-7.5,0-13.5-6.1-13.5-13.5s6.1-13.5,13.5-13.5c6.8,0,13.5,5,13.5,14.8C37.6,27.9,35.4,30.1,32.7,30.1z
				"/>
		</g>
	</g>
</g>
</svg>
