<?xml version="1.0" encoding="utf-8"?>
<!-- Generator: Adobe Illustrator 23.0.1, SVG Export Plug-In . SVG Version: 6.00 Build 0)  -->
<svg version="1.1" id="Layer_1" xmlns="http://www.w3.org/2000/svg" xmlns:xlink="http://www.w3.org/1999/xlink" x="0px" y="0px"
	 viewBox="0 0 52 52" style="enable-background:new 0 0 52 52;" xml:space="preserve">
<style type="text/css">
	.st0{fill:#6470FB;}
</style>
<g>
	<g>
		<path class="st0" d="M40.8,11.1c-8.2-8.2-21.5-8.2-29.7,0s-8.2,21.5,0,29.7s21.5,8.2,29.7,0C44.8,36.9,47,31.6,47,26
			C47,20.4,44.8,15.1,40.8,11.1z M36.8,34.3C36.8,34.3,36.8,34.3,36.8,34.3L36.8,34.3l-1.1,1.1c-1.4,1.4-3.4,2-5.3,1.5
			c-1.9-0.5-3.7-1.3-5.4-2.4c-1.5-1-3-2.1-4.3-3.4c-1.2-1.2-2.3-2.5-3.2-3.9c-1-1.5-1.8-3.1-2.4-4.8c-0.7-2-0.1-4.2,1.4-5.7l1.2-1.2
			c0.3-0.3,0.9-0.3,1.3,0c0,0,0,0,0,0l3.9,3.9c0.3,0.3,0.3,0.9,0,1.3c0,0,0,0,0,0l-2.3,2.3c-0.7,0.7-0.7,1.7-0.2,2.5
			c0.8,1.1,1.8,2.2,2.8,3.2c1.1,1.1,2.3,2.1,3.6,3.1c0.8,0.5,1.8,0.4,2.4-0.2l2.2-2.3c0.3-0.3,0.9-0.3,1.3,0c0,0,0,0,0,0l3.9,3.9
			C37.1,33.3,37.1,33.9,36.8,34.3z"/>
	</g>
</g>
</svg>
