<?xml version="1.0"?>
<svg xmlns="http://www.w3.org/2000/svg" xmlns:xlink="http://www.w3.org/1999/xlink" id="Layer_1" data-name="Layer 1" viewBox="0 0 512 512" width="512" height="512"><defs><linearGradient id="linear-gradient" x1="256" y1="476" x2="256" y2="35.632" gradientUnits="userSpaceOnUse"><stop offset="0.322" stop-color="#a163f5"/><stop offset="0.466" stop-color="#b074ee"/><stop offset="0.752" stop-color="#d8a1dd"/><stop offset="0.898" stop-color="#efbad3"/></linearGradient><linearGradient id="linear-gradient-2" x1="101.344" y1="476" x2="101.344" y2="35.632" xlink:href="#linear-gradient"/><linearGradient id="linear-gradient-3" x1="256" y1="476" x2="256" y2="35.632" xlink:href="#linear-gradient"/><linearGradient id="linear-gradient-4" x1="256" y1="476" x2="256" y2="35.632" xlink:href="#linear-gradient"/><linearGradient id="linear-gradient-5" x1="403" y1="476" x2="403" y2="35.632" xlink:href="#linear-gradient"/><linearGradient id="linear-gradient-7" x1="388.35" y1="476" x2="388.35" y2="35.632" xlink:href="#linear-gradient"/><linearGradient id="linear-gradient-8" x1="418.35" y1="476" x2="418.35" y2="35.632" xlink:href="#linear-gradient"/><linearGradient id="linear-gradient-9" x1="140" y1="476" x2="140" y2="35.632" xlink:href="#linear-gradient"/><linearGradient id="linear-gradient-11" x1="125.212" y1="476" x2="125.212" y2="35.632" xlink:href="#linear-gradient"/><linearGradient id="linear-gradient-12" x1="155.212" y1="476" x2="155.212" y2="35.632" xlink:href="#linear-gradient"/></defs><title>Save Money</title><path d="M428.871,298.681l-2.144,1.157c-9.331-11.2-25.4-15.524-37.645-9.315l-.134.07-5.279,2.844a41.286,41.286,0,0,0-47.16-4.214L307.435,305h-38.7a55.736,55.736,0,0,1-24.142-5.5l-5.331-2.562a91.657,91.657,0,0,0-95.392,9.324c-.131.1-.259.208-.382.317l-12.87,11.46a44.43,44.43,0,0,1-16.572,9.29l-7.254-23.935A6.133,6.133,0,0,0,101.049,299H38.806a6.232,6.232,0,0,0-5.956,6.943L53.6,475.9a5.851,5.851,0,0,0,5.956,5.1h93.365a5.712,5.712,0,0,0,5.74-7.435L146.433,433.52,184.5,409.484a22.8,22.8,0,0,1,16.616-2.135c.124.031.249.065.375.088l77.705,14.312a100.772,100.772,0,0,0,62.264-8.789,5.906,5.906,0,0,0,.733-.43l134.4-92.28a6,6,0,0,0,1.744-8.041A37.093,37.093,0,0,0,428.871,298.681Zm-34.3,2.515c6.9-3.454,15.573-.691,21.2,4.553l-50.719,27.362-2.78,1.466a44.389,44.389,0,0,0-6.785-12.323Zm-52.257-1.437.142-.079a29.268,29.268,0,0,1,29.458.093L346.429,313.5a44.255,44.255,0,0,0-15.993-7.287ZM64.866,469,45.582,311H96.605l48.211,158Zm270.889-66.607a88.69,88.69,0,0,1-54.407,7.554L203.84,395.675a34.755,34.755,0,0,0-25.335,3.435c-.093.053-.186.108-.277.165L142.8,421.67l-25.258-82.846A56.467,56.467,0,0,0,138.594,327l12.682-11.291a79.71,79.71,0,0,1,82.758-7.956l5.33,2.546a67.8,67.8,0,0,0,29.367,6.7h51.693a32.517,32.517,0,0,1,31.817,26.16l-37.206-1.667a224.511,224.511,0,0,0-40.812,1.893,6,6,0,0,0,1.646,11.893,212.445,212.445,0,0,1,38.624-1.783l44.092,2c.091,0,.181.007.271.007a6,6,0,0,0,6-6c0-.9-.034-1.787-.087-2.672L370.7,343.7l63.872-34.457a25.111,25.111,0,0,1,30.051,4.67Z" style="fill:url(#linear-gradient)"/><path d="M82.9,445.653A18.449,18.449,0,1,0,101.344,427.2,18.469,18.469,0,0,0,82.9,445.653Zm18.448-6.449a6.449,6.449,0,1,1-6.448,6.449A6.456,6.456,0,0,1,101.344,439.2Z" style="fill:url(#linear-gradient-2)"/><path d="M256,261.42a106,106,0,1,0-106-106A106.12,106.12,0,0,0,256,261.42Zm0-200a94,94,0,1,1-94,94A94.106,94.106,0,0,1,256,61.42Z" style="fill:url(#linear-gradient-3)"/><path d="M242.711,155H224.636a5.917,5.917,0,0,0-4.167,10.2l44,42.464a6.006,6.006,0,0,0,8.335-8.65l-33.15-32.006,2.7.028a32.6,32.6,0,0,0,32.391-26.246l12.264.209h.066a6.058,6.058,0,0,0,.063-12.115l-12.257-.151a32.67,32.67,0,0,0-6.654-14.84L287.3,114h.066a5.933,5.933,0,1,0,.063-11.866l-44.369-.453-17.786-.18a6,6,0,0,0-.128,12.007l17.785.193a20.535,20.535,0,0,1,14.549,6.21,20.263,20.263,0,0,1,5.081,8.581L224.987,128h-.066a6.068,6.068,0,0,0-.063,12.134l37.561.406A20.706,20.706,0,0,1,242.711,155Z" style="fill:url(#linear-gradient-4)"/><path d="M403,120.249a6,6,0,0,0,6-6v-10a6,6,0,0,0-12,0v10A6,6,0,0,0,403,120.249Z" style="fill:url(#linear-gradient-5)"/><path d="M403,128.249a6,6,0,0,0-6,6v10a6,6,0,1,0,12,0v-10A6,6,0,0,0,403,128.249Z" style="fill:url(#linear-gradient-5)"/><path d="M383.35,130h10a6,6,0,0,0,0-12h-10a6,6,0,0,0,0,12Z" style="fill:url(#linear-gradient-7)"/><path d="M407.35,124a6,6,0,0,0,6,6h10a6,6,0,0,0,0-12h-10A6,6,0,0,0,407.35,124Z" style="fill:url(#linear-gradient-8)"/><path d="M140,52.58a6,6,0,0,0,6-6v-10a6,6,0,1,0-12,0v10A6,6,0,0,0,140,52.58Z" style="fill:url(#linear-gradient-9)"/><path d="M140,60.58a6,6,0,0,0-6,6v10a6,6,0,0,0,12,0v-10A6,6,0,0,0,140,60.58Z" style="fill:url(#linear-gradient-9)"/><path d="M120.212,63h10a6,6,0,0,0,0-12h-10a6,6,0,1,0,0,12Z" style="fill:url(#linear-gradient-11)"/><path d="M144.212,57a6,6,0,0,0,6,6h10a6,6,0,0,0,0-12h-10A6,6,0,0,0,144.212,57Z" style="fill:url(#linear-gradient-12)"/></svg>
