<?xml version="1.0" encoding="utf-8"?>
<!-- Generator: Adobe Illustrator 23.0.1, SVG Export Plug-In . SVG Version: 6.00 Build 0)  -->
<svg version="1.1" id="Bold" xmlns="http://www.w3.org/2000/svg" xmlns:xlink="http://www.w3.org/1999/xlink" x="0px" y="0px"
	 viewBox="0 0 44 44" style="enable-background:new 0 0 44 44;" xml:space="preserve">
<style type="text/css">
	.st0{fill:#6470FB;}
</style>
<path class="st0" d="M22,43c11.6,0,21-9.4,21-21S33.6,1,22,1S1,10.4,1,22S10.4,43,22,43z M10.6,21.5l20.3-7.8
	c0.9-0.3,1.8,0.2,1.5,1.6l0,0l-3.4,16.2c-0.3,1.1-0.9,1.4-1.9,0.9l-5.3-3.9l-2.5,2.4c-0.3,0.3-0.5,0.5-1.1,0.5l0.4-5.3l9.7-8.8
	c0.4-0.4-0.1-0.6-0.7-0.2l-12,7.6l-5.2-1.6C9.2,22.9,9.2,22.1,10.6,21.5L10.6,21.5z"/>
</svg>
