<svg id="Layer_1" height="512" viewBox="0 0 512 512" width="512" xmlns="http://www.w3.org/2000/svg" xmlns:xlink="http://www.w3.org/1999/xlink" data-name="Layer 1"><linearGradient id="linear-gradient" gradientUnits="userSpaceOnUse" x1="256" x2="256" y1="463.546" y2="82.839"><stop offset=".322" stop-color="#a163f5"/><stop offset=".466" stop-color="#b074ee"/><stop offset=".752" stop-color="#d8a1dd"/><stop offset=".898" stop-color="#efbad3"/></linearGradient><linearGradient id="linear-gradient-2" x1="274.351" x2="274.351" xlink:href="#linear-gradient" y1="463.546" y2="82.839"/><linearGradient id="linear-gradient-3" x1="231.924" x2="231.924" xlink:href="#linear-gradient" y1="463.546" y2="82.839"/><linearGradient id="linear-gradient-4" x1="169.197" x2="169.197" xlink:href="#linear-gradient" y1="463.546" y2="82.839"/><linearGradient id="linear-gradient-5" x1="233.986" x2="233.986" xlink:href="#linear-gradient" y1="463.546" y2="82.839"/><linearGradient id="linear-gradient-6" x1="162.818" x2="162.818" xlink:href="#linear-gradient" y1="463.546" y2="82.839"/><linearGradient id="linear-gradient-7" x1="294.702" x2="294.702" xlink:href="#linear-gradient" y1="463.546" y2="82.839"/><linearGradient id="linear-gradient-8" x1="227.699" x2="227.699" xlink:href="#linear-gradient" y1="463.546" y2="82.839"/><linearGradient id="linear-gradient-9" x1="176.852" x2="176.852" xlink:href="#linear-gradient" y1="463.546" y2="82.839"/><linearGradient id="linear-gradient-10" x1="318.854" x2="318.854" xlink:href="#linear-gradient" y1="463.546" y2="82.839"/><linearGradient id="linear-gradient-11" x1="248.011" x2="248.011" xlink:href="#linear-gradient" y1="463.546" y2="82.839"/><linearGradient id="linear-gradient-12" x1="172.387" x2="172.387" xlink:href="#linear-gradient" y1="463.546" y2="82.839"/><path d="m388.152 325.215v-220.489a6 6 0 0 0 -1.783-4.267l-86.43-85.431a6 6 0 0 0 -4.218-1.733h-142.3c-22.157 0-40.183 17.849-40.183 39.771l-.738 276.546a75.248 75.248 0 0 0 32.734 143h90.766l.06 19.769a6 6 0 0 0 5.93 5.981l29.771.348h.07a6 6 0 0 0 6-6.018l-.061-20.08h89a75.25 75.25 0 0 0 21.383-147.392zm-86.431-291.553 65.825 65.064h-37.646a28.019 28.019 0 0 1 -28.183-27.787zm-176.478 19.421a28.019 28.019 0 0 1 28.183-27.783h136.3v45.639a40.032 40.032 0 0 0 40.174 39.787h46.248v183.118a75.364 75.364 0 0 0 -82.519-34.721 102.891 102.891 0 0 0 -169.01 24.082zm140.566 433.551-17.771-.207-.235-77.19a11.073 11.073 0 0 0 -10.939-11.21l-17.9-.209 38.06-52.772a1.938 1.938 0 0 1 1.243-.449 1.94 1.94 0 0 1 1.192.411l35.862 53.7-18.552-.216a11.09 11.09 0 0 0 -11.2 11.038zm145.662-44.56a62.794 62.794 0 0 1 -44.7 18.533h-89.04l-.152-50.105 28.717.335a6.157 6.157 0 0 0 4.932-9.928l-42.134-63.092a6.011 6.011 0 0 0 -.586-.744 14 14 0 0 0 -10.208-4.473h-.026a14 14 0 0 0 -10.205 4.44 6.183 6.183 0 0 0 -.478.582l-44.521 61.722a6.271 6.271 0 0 0 4.69 10.344l28.046.327.153 50.592h-90.728a63.262 63.262 0 0 1 -22.664-122.3 6 6 0 0 0 3.845-5.873c-.07-1.559-.1-2.975-.1-4.327a90.913 90.913 0 0 1 160.66-58.355 6 6 0 0 0 6.329 1.9 63.222 63.222 0 0 1 81.254 58.075 6 6 0 0 0 4.808 5.648 63.248 63.248 0 0 1 32.112 106.706z" fill="url(#linear-gradient)"/><path d="m274.326 63.937h.1a5.959 5.959 0 0 0 5.952-6 6.025 6.025 0 1 0 -6.049 6z" fill="url(#linear-gradient-2)"/><path d="m214.1 63.937h35.65a6 6 0 0 0 0-12h-35.65a6 6 0 0 0 0 12z" fill="url(#linear-gradient-3)"/><path d="m153.869 63.937h30.656a6 6 0 0 0 0-12h-30.656a6 6 0 0 0 0 12z" fill="url(#linear-gradient-4)"/><path d="m187.646 108.34a6 6 0 0 0 6 6h80.68a6 6 0 0 0 0-12h-80.68a6 6 0 0 0 -6 6z" fill="url(#linear-gradient-5)"/><path d="m153.869 114.34h17.9a6 6 0 0 0 0-12h-17.9a6 6 0 0 0 0 12z" fill="url(#linear-gradient-6)"/><path d="m249.516 158.743a6 6 0 0 0 6 6h78.372a6 6 0 0 0 0-12h-78.372a6 6 0 0 0 -6 6z" fill="url(#linear-gradient-7)"/><path d="m233.406 164.743a6 6 0 0 0 0-12h-11.414a6 6 0 0 0 0 12z" fill="url(#linear-gradient-8)"/><path d="m153.869 164.743h45.967a6 6 0 0 0 0-12h-45.967a6 6 0 1 0 0 12z" fill="url(#linear-gradient-9)"/><path d="m333.888 203.146h-30.068a6 6 0 0 0 0 12h30.068a6 6 0 0 0 0-12z" fill="url(#linear-gradient-10)"/><path d="m281.924 203.146h-67.824a6 6 0 0 0 0 12h67.827a6 6 0 0 0 0-12z" fill="url(#linear-gradient-11)"/><path d="m153.869 215.146h37.036a6 6 0 0 0 0-12h-37.036a6 6 0 0 0 0 12z" fill="url(#linear-gradient-12)"/></svg>