<?xml version="1.0" encoding="utf-8"?>
<!-- Generator: Adobe Illustrator 23.0.1, SVG Export Plug-In . SVG Version: 6.00 Build 0)  -->
<svg version="1.1" id="Layer_1" xmlns="http://www.w3.org/2000/svg" xmlns:xlink="http://www.w3.org/1999/xlink" x="0px" y="0px"
	 viewBox="0 0 43 43" style="enable-background:new 0 0 43 43;" xml:space="preserve">
<style type="text/css">
	.st0{fill:#6470FB;}
</style>
<g>
	<path class="st0" d="M21.5,0.5c-11.6,0-21,9.4-21,21s9.4,21,21,21s21-9.4,21-21S33.1,0.5,21.5,0.5z M21.9,33.7L21.9,33.7L21.9,33.7
		c-2.1,0-4.2-0.5-6-1.5l-6.7,1.7l1.8-6.5c-1.1-1.9-1.7-4.1-1.7-6.3c0-6.9,5.6-12.6,12.6-12.6c3.4,0,6.5,1.3,8.9,3.7s3.7,5.5,3.7,8.9
		C34.5,28.1,28.8,33.7,21.9,33.7z"/>
	<path class="st0" d="M21.9,10.7c-5.8,0-10.4,4.7-10.5,10.4c0,2,0.6,3.9,1.6,5.6l0.2,0.4L12.1,31l4-1l0.4,0.2c1.6,1,3.4,1.5,5.3,1.5
		l0,0c5.8,0,10.4-4.7,10.4-10.4c0-2.8-1.1-5.4-3.1-7.4S24.7,10.7,21.9,10.7z M28.1,25.6c-0.3,0.7-1.5,1.4-2.1,1.5
		c-0.5,0.1-1.2,0.1-2-0.1c-0.5-0.1-1-0.3-1.8-0.7C19,25,17,21.8,16.8,21.6s-1.3-1.7-1.3-3.2s0.8-2.3,1.1-2.6
		c0.3-0.3,0.6-0.4,0.8-0.4s0.4,0,0.6,0s0.5-0.1,0.7,0.5c0.3,0.6,0.9,2.2,1,2.3c0.1,0.2,0.1,0.3,0,0.6c-0.1,0.2-0.5,0.7-0.8,1.1
		c-0.1,0.2-0.3,0.3-0.1,0.6c0.2,0.3,0.8,1.3,1.7,2.2c1.2,1.1,2.2,1.4,2.5,1.6s0.5,0.1,0.7-0.1s0.8-0.9,1-1.2s0.4-0.3,0.7-0.2
		c0.3,0.1,1.8,0.9,2.1,1c0.3,0.2,0.5,0.2,0.6,0.4C28.3,24.3,28.3,24.9,28.1,25.6z"/>
</g>
</svg>
